<?xml version="1.0" standalone="no"?>
<!DOCTYPE svg PUBLIC "-//W3C//DTD SVG 20010904//EN"
 "http://www.w3.org/TR/2001/REC-SVG-20010904/DTD/svg10.dtd">
<svg version="1.0" xmlns="http://www.w3.org/2000/svg"
 width="549.000000pt" height="549.000000pt" viewBox="0 0 549.000000 549.000000"
 preserveAspectRatio="xMidYMid meet">
<metadata>
Created by potrace 1.14, written by Peter Selinger 2001-2017
</metadata>
<g transform="translate(0.000000,549.000000) scale(0.100000,-0.100000)"
fill="#000000" stroke="none">
<path d="M1640 4219 c-64 -12 -178 -71 -232 -119 -100 -87 -158 -214 -164
-351 -4 -108 14 -176 95 -366 32 -76 75 -178 96 -228 20 -49 42 -101 48 -115
6 -14 11 -27 12 -30 1 -3 7 -16 13 -30 6 -14 22 -52 35 -85 67 -165 120 -293
132 -320 18 -38 104 -247 162 -390 25 -60 51 -123 58 -140 7 -16 55 -131 106
-255 51 -124 104 -250 118 -280 l25 -55 9 35 c15 58 48 152 77 215 30 65 151
345 250 575 34 80 66 149 71 154 5 6 9 16 9 22 0 7 15 45 33 86 19 40 49 108
67 150 l33 76 -23 59 c-13 32 -38 91 -57 131 -18 41 -33 77 -33 81 0 4 -6 21
-14 37 -19 37 -130 303 -212 509 -36 88 -69 169 -74 180 -5 11 -23 54 -40 95
-40 97 -69 146 -120 203 -115 129 -308 191 -480 156z"/>
<path d="M3695 4219 c-118 -15 -209 -55 -282 -122 -78 -72 -123 -149 -218
-377 -15 -36 -37 -87 -50 -115 -12 -27 -39 -90 -60 -140 -21 -49 -53 -123 -71
-163 -19 -41 -34 -76 -34 -79 0 -2 -11 -28 -24 -56 -13 -29 -59 -133 -101
-232 -43 -99 -86 -200 -97 -225 -11 -25 -24 -54 -28 -65 -5 -11 -24 -55 -44
-98 -20 -43 -36 -80 -36 -82 0 -2 -11 -28 -24 -57 -13 -29 -36 -82 -51 -118
-15 -36 -35 -83 -45 -105 -101 -222 -262 -605 -279 -663 -130 -434 322 -802
723 -589 67 36 154 118 191 181 14 24 77 163 139 308 148 342 304 704 324 748
9 19 16 37 17 40 2 5 23 53 55 125 18 40 54 124 325 750 78 182 151 350 162
375 44 95 56 146 59 241 4 104 -9 166 -52 251 -49 97 -177 207 -282 243 -57
20 -160 31 -217 24z"/>
<path d="M572 3689 c-171 -32 -286 -170 -284 -344 0 -57 21 -115 161 -450 113
-270 311 -745 381 -917 29 -71 55 -128 59 -128 7 0 31 49 31 63 0 4 9 29 21
55 12 26 27 61 34 77 52 122 152 350 175 400 47 104 100 242 100 261 0 9 -38
108 -84 218 -46 111 -119 284 -161 385 -79 190 -106 242 -154 292 -41 42 -114
78 -174 85 -29 4 -54 7 -57 8 -3 2 -24 -1 -48 -5z"/>
<path d="M4755 3665 c-121 -40 -171 -111 -308 -440 -30 -71 -92 -213 -137
-315 -45 -102 -82 -196 -82 -210 -1 -14 6 -41 15 -60 32 -71 295 -706 306
-742 25 -75 25 -74 150 217 45 105 88 204 95 220 8 17 64 147 126 290 62 143
144 332 182 420 95 216 99 230 100 305 1 232 -223 391 -447 315z"/>
<path d="M1415 2855 c-14 -33 -30 -69 -35 -80 -5 -11 -28 -65 -51 -120 -23
-55 -52 -122 -64 -150 -13 -27 -60 -135 -105 -240 -45 -104 -102 -237 -128
-295 -65 -148 -75 -201 -58 -303 22 -132 160 -251 305 -261 91 -7 211 43 270
110 31 36 63 102 165 335 72 167 84 201 77 225 -5 16 -39 101 -76 189 -37 88
-107 258 -156 378 -48 119 -95 229 -103 245 l-15 27 -26 -60z"/>
<path d="M4011 2848 c-10 -24 -27 -63 -38 -88 -18 -40 -49 -112 -88 -205 -7
-16 -58 -136 -114 -266 l-101 -236 21 -49 c11 -27 24 -58 29 -69 5 -11 28 -67
51 -125 96 -245 154 -330 258 -378 221 -102 479 69 470 310 -3 78 -13 107
-132 388 -52 124 -133 317 -180 430 -111 269 -139 330 -149 330 -5 0 -17 -19
-27 -42z"/>
</g>
</svg>
